<svg id="Calque_1" data-name="Calque 1" xmlns="http://www.w3.org/2000/svg" viewBox="0 0 20.28 15.94"><defs><style>.cls-1{fill:#f77112;}</style></defs><title>camera</title><path class="cls-1" d="M22.27,28.65H14.41a2.15,2.15,0,0,1-2.26-2.28q0-5,0-10a2.16,2.16,0,0,1,2.22-2.2h3.26a.44.44,0,0,0,.48-.29,1.89,1.89,0,0,1,1.83-1.17c1.56,0,3.13,0,4.69,0a1.9,1.9,0,0,1,1.84,1.16.45.45,0,0,0,.48.29q1.65,0,3.3,0a2.15,2.15,0,0,1,2.18,2.19q0,5,0,10a2.17,2.17,0,0,1-2.3,2.28H22.27Zm0-1.44h7.82c.62,0,.87-.26.88-.89,0-.06,0-.13,0-.19q0-4.8,0-9.6c0-.68-.25-.93-.94-.93H25.93a.35.35,0,0,1-.38-.24c-.12-.29-.25-.58-.38-.87a.53.53,0,0,0-.52-.34H20a.56.56,0,0,0-.57.37c-.12.27-.25.54-.36.81a.39.39,0,0,1-.42.28c-1.35,0-2.7,0-4.05,0-.73,0-1,.23-1,1q0,3.22,0,6.43c0,1.14,0,2.28,0,3.42a.72.72,0,0,0,.78.8h7.92Z" transform="translate(-12.14 -12.71)"/><path class="cls-1" d="M22.28,25.75a4.34,4.34,0,1,1,4.34-4.33A4.33,4.33,0,0,1,22.28,25.75Zm2.91-4.34a2.9,2.9,0,1,0-2.9,2.9A2.9,2.9,0,0,0,25.19,21.41Z" transform="translate(-12.14 -12.71)"/><path class="cls-1" d="M15.06,18.48V17.09h1.39v1.39Z" transform="translate(-12.14 -12.71)"/></svg>