<?xml version="1.0" encoding="UTF-8" standalone="no"?>
<svg
   xmlns:dc="http://purl.org/dc/elements/1.1/"
   xmlns:cc="http://creativecommons.org/ns#"
   xmlns:rdf="http://www.w3.org/1999/02/22-rdf-syntax-ns#"
   xmlns:svg="http://www.w3.org/2000/svg"
   xmlns="http://www.w3.org/2000/svg"
   xmlns:xlink="http://www.w3.org/1999/xlink"
   xmlns:sodipodi="http://sodipodi.sourceforge.net/DTD/sodipodi-0.dtd"
   xmlns:inkscape="http://www.inkscape.org/namespaces/inkscape"
   width="68.822273"
   height="110.29964"
   id="svg2"
   version="1.1"
   inkscape:version="0.92.3 (2405546, 2018-03-11)"
   sodipodi:docname="marker_green.svg">
  <metadata
     id="metadata74">
    <rdf:RDF>
      <cc:Work
         rdf:about="">
        <dc:format>image/svg+xml</dc:format>
        <dc:type
           rdf:resource="http://purl.org/dc/dcmitype/StillImage" />
        <dc:title></dc:title>
      </cc:Work>
    </rdf:RDF>
  </metadata>
  <sodipodi:namedview
     pagecolor="#ffffff"
     bordercolor="#666666"
     borderopacity="1"
     objecttolerance="10"
     gridtolerance="10"
     guidetolerance="10"
     inkscape:pageopacity="0"
     inkscape:pageshadow="2"
     inkscape:window-width="1920"
     inkscape:window-height="1012"
     id="namedview72"
     showgrid="false"
     fit-margin-top="0"
     fit-margin-left="0"
     fit-margin-right="0"
     fit-margin-bottom="0"
     inkscape:zoom="6.2792078"
     inkscape:cx="6.8909561"
     inkscape:cy="54.655065"
     inkscape:window-x="0"
     inkscape:window-y="0"
     inkscape:window-maximized="1"
     inkscape:current-layer="svg2"
     inkscape:snap-global="false" />
  <defs
     id="defs4">
    <linearGradient
       inkscape:collect="always"
       id="linearGradient944">
      <stop
         style="stop-color:#020202;stop-opacity:0.49758452"
         offset="0"
         id="stop940" />
      <stop
         style="stop-color:#8f8f8f;stop-opacity:0.78260875"
         offset="1"
         id="stop942" />
    </linearGradient>
    <linearGradient
       inkscape:collect="always"
       id="linearGradient967">
      <stop
         style="stop-color:#ffffff;stop-opacity:0.00483092"
         offset="0"
         id="stop963" />
      <stop
         style="stop-color:#ffffff;stop-opacity:0.09661835"
         offset="1"
         id="stop965" />
    </linearGradient>
    <linearGradient
       id="b">
      <stop
         offset="0"
         stop-color="#2e6c97"
         id="stop7" />
      <stop
         offset="1"
         stop-color="#3883b7"
         id="stop9" />
    </linearGradient>
    <linearGradient
       id="a">
      <stop
         offset="0"
         stop-color="#126fc6"
         id="stop12" />
      <stop
         offset="1"
         stop-color="#4c9cd1"
         id="stop14" />
    </linearGradient>
    <linearGradient
       xlink:href="#a"
       x1="351.138"
       y1="551.58899"
       x2="351.138"
       y2="512.92798"
       gradientUnits="userSpaceOnUse"
       gradientTransform="translate(-2.715,0)"
       id="linearGradient16" />
    <linearGradient
       xlink:href="#a"
       x1="318.57101"
       y1="550.052"
       x2="318.57101"
       y2="512.422"
       gradientUnits="userSpaceOnUse"
       gradientTransform="translate(94.732,2.054)"
       id="linearGradient18" />
    <linearGradient
       xlink:href="#a"
       gradientUnits="userSpaceOnUse"
       gradientTransform="matrix(-1,0,0,1,731.268,2.054)"
       x1="318.57101"
       y1="550.052"
       x2="318.57101"
       y2="512.422"
       id="linearGradient20" />
    <linearGradient
       xlink:href="#a"
       gradientUnits="userSpaceOnUse"
       gradientTransform="translate(94.232,2.054)"
       x1="318.57101"
       y1="550.052"
       x2="318.57101"
       y2="512.422"
       id="linearGradient22" />
    <linearGradient
       xlink:href="#a"
       gradientUnits="userSpaceOnUse"
       gradientTransform="translate(-28.58,-0.437)"
       x1="445.30099"
       y1="541.28601"
       x2="445.30099"
       y2="503.72"
       id="linearGradient24" />
    <linearGradient
       xlink:href="#b"
       gradientUnits="userSpaceOnUse"
       gradientTransform="translate(63,-0.438)"
       x1="351.74799"
       y1="522.77399"
       x2="351.74799"
       y2="503.72101"
       id="linearGradient26" />
    <linearGradient
       xlink:href="#a"
       gradientUnits="userSpaceOnUse"
       gradientTransform="translate(-28.58,-0.437)"
       x1="445.30099"
       y1="541.28601"
       x2="445.30099"
       y2="503.72"
       id="linearGradient28" />
    <linearGradient
       xlink:href="#b"
       gradientUnits="userSpaceOnUse"
       gradientTransform="translate(63,-0.438)"
       x1="351.74799"
       y1="522.77399"
       x2="351.74799"
       y2="503.72101"
       id="linearGradient30" />
    <linearGradient
       xlink:href="#a"
       gradientUnits="userSpaceOnUse"
       gradientTransform="translate(-28.58,-0.437)"
       x1="445.30099"
       y1="541.28601"
       x2="445.30099"
       y2="503.72"
       id="linearGradient32" />
    <linearGradient
       xlink:href="#b"
       gradientUnits="userSpaceOnUse"
       gradientTransform="translate(63,-0.438)"
       x1="351.74799"
       y1="522.77399"
       x2="351.74799"
       y2="503.72101"
       id="linearGradient34" />
    <linearGradient
       xlink:href="#a"
       id="c"
       gradientUnits="userSpaceOnUse"
       gradientTransform="matrix(2.7419235,0,0,2.7419235,-1186.6935,-1380.1445)"
       x1="445.30099"
       y1="541.28601"
       x2="445.30099"
       y2="503.72" />
    <linearGradient
       xlink:href="#b"
       id="d"
       gradientUnits="userSpaceOnUse"
       gradientTransform="matrix(2.7419235,0,0,2.7419235,-935.58818,-1380.1472)"
       x1="351.74799"
       y1="522.77399"
       x2="351.74799"
       y2="503.72101" />
    <linearGradient
       xlink:href="#a"
       gradientUnits="userSpaceOnUse"
       gradientTransform="translate(-28.846,-0.287)"
       x1="445.30099"
       y1="541.28601"
       x2="445.30099"
       y2="503.72"
       id="linearGradient38" />
    <linearGradient
       xlink:href="#b"
       gradientUnits="userSpaceOnUse"
       gradientTransform="translate(62.734,-0.288)"
       x1="351.74799"
       y1="522.77399"
       x2="351.74799"
       y2="503.72101"
       id="linearGradient40" />
    <radialGradient
       inkscape:collect="always"
       xlink:href="#linearGradient967"
       id="radialGradient969"
       cx="30.591236"
       cy="58.991158"
       fx="30.591236"
       fy="58.991158"
       r="29.90479"
       gradientTransform="matrix(0.32216564,-2.0981,1.197645,0.18389976,-45.995091,127.01787)"
       gradientUnits="userSpaceOnUse" />
    <radialGradient
       inkscape:collect="always"
       xlink:href="#linearGradient944"
       id="radialGradient946"
       cx="33.774113"
       cy="67.869026"
       fx="33.774113"
       fy="67.869026"
       r="34.411138"
       gradientTransform="matrix(0.99026429,0.13961712,-0.37541289,2.6483616,25.807665,-109.15993)"
       gradientUnits="userSpaceOnUse" />
  </defs>
  <rect
     y="13.489115"
     x="20.48884"
     height="29.627214"
     width="25.796108"
     id="rect44"
     style="fill:#ffffff" />
  <path
     d="m 34.537156,0.04411725 c -18.824544,0 -34.49303875,16.25375075 -34.49303875,33.88982675 0,7.934088 4.47917035,18.015924 7.71539465,24.97896 L 34.411138,109.95613 60.936757,58.912904 c 3.236224,-6.963036 7.841402,-16.539353 7.841402,-24.97896 0,-17.636076 -15.41647,-33.88982675 -34.241003,-33.88982675 z"
     id="MarkerBkg"
     style="fill:#00aa88;fill-opacity:1;stroke:none;stroke-width:3.14597678;stroke-linecap:round;stroke-opacity:1"
     inkscape:connector-curvature="0"
     sodipodi:nodetypes="sscccss"
     inkscape:label="" />
  <path
     d="m 34.49178,6.0505722 c -15.47563,0 -28.4778738,13.6029498 -28.4778738,28.0191068 0,6.148568 3.7569589,15.200694 6.6729548,21.503038 l 0.08071,0.0808 21.643496,41.622068 21.479471,-41.622068 0.08071,-0.0808 c 2.955052,-6.380538 6.834378,-14.872286 6.834378,-21.503038 0,-14.434399 -12.83822,-28.0191068 -28.31385,-28.0191068 z"
     id="MarkerGradientEffet"
     inkscape:connector-curvature="0"
     style="fill:url(#radialGradient969);fill-opacity:1;stroke:none;stroke-width:2.8653903;stroke-linecap:round;stroke-miterlimit:4;stroke-dasharray:none;stroke-opacity:0.77777782"
     sodipodi:nodetypes="sscccccss"
     inkscape:label="" />
  <path
     d="m 34.496138,4.5433669 c -16.29799,0 -29.99116,14.3101001 -29.99116,29.4756801 0,6.4682 3.9566,15.9909 7.02755,22.62087 l 0.085,0.085 22.79361,43.785783 22.62087,-43.785783 0.085,-0.085 c 3.11208,-6.71223 7.19755,-15.64542 7.19755,-22.62087 0,-15.18477 -13.52043,-29.4756801 -29.81842,-29.4756801 z"
     id="MarkerInnerContour"
     inkscape:connector-curvature="0"
     style="fill:none;fill-opacity:1;stroke:#fffffe;stroke-width:3.01600003;stroke-linecap:round;stroke-miterlimit:4;stroke-dasharray:none;stroke-opacity:0.53623188"
     sodipodi:nodetypes="sscccccss"
     inkscape:label="" />
  <path
     style="fill:#ffffff;stroke-width:0.88533586"
     d="m 29.258462,15.979976 -5,6.40039 c 2.61752,-2.858152 6.36554,-4.664062 10.53906,-4.664062 4.13675,0 7.856324,1.773553 10.470702,4.58789 l -4.941402,-6.324218 h -5.53516 z m 5.53906,3.507812 c -6.93505,0 -12.53711,5.602059 -12.53711,12.537109 0,6.935051 5.60206,12.53711 12.53711,12.53711 6.93505,0 12.539061,-5.602059 12.539061,-12.53711 0,-6.93505 -5.604011,-12.537109 -12.539061,-12.537109 z m 0,3.277344 a 9.2570724,9.2570724 0 0 1 9.257811,9.257812 9.2570724,9.2570724 0 0 1 -9.257811,9.257813 9.2570724,9.2570724 0 0 1 -9.25586,-9.257813 9.2570724,9.2570724 0 0 1 9.25586,-9.257812 z m -22.13867,0.296875 v 22.132812 h 16.54492 c -5.11825,-2.181653 -8.71485,-7.262377 -8.71485,-13.169922 10e-6,-3.392258 1.19131,-6.50823 3.16993,-8.96289 h -5.4668 z m 33.277341,0 c 1.978616,2.45466 3.169921,5.570632 3.169921,8.96289 1e-6,5.907545 -3.596595,10.988269 -8.714842,13.169922 H 56.926427 V 23.062007 h -5.533203 z"
     id="CameraIcon"
     inkscape:connector-curvature="0"
     inkscape:label="" />
  <path
     d="m 34.531799,1.5063592 c -18.024299,0 -33.0267143,15.5546228 -33.0267143,32.4321108 0,7.592815 4.2887575,17.240997 7.3874075,23.904529 L 34.411138,106.69069 59.809133,57.842999 c 3.09865,-6.663532 7.508058,-15.827939 7.508058,-23.904529 0,-16.877488 -14.761103,-32.4321108 -32.785392,-32.4321108 z"
     id="MarkerBOuterContour"
     style="fill:none;fill-opacity:1;stroke:url(#radialGradient946);stroke-width:3.01144814;stroke-linecap:round;stroke-opacity:0.54106278"
     inkscape:connector-curvature="0"
     sodipodi:nodetypes="sscccss"
     inkscape:label="" />
</svg>
